<svg id="Layer_1" enable-background="new 0 0 511.934 511.934" height="512" viewBox="0 0 511.934 511.934" width="512" xmlns="http://www.w3.org/2000/svg"><g><g><g><g><path d="m92 504.434c-30.333 0-54.958-24.909-54.494-55.347.456-29.904 25.413-53.653 55.321-53.653h366.673c8.284 0 15 6.716 15 15 0 8.284-6.716 15-15 15h-34.314v49h34.314c8.284 0 15 6.716 15 15 0 8.284-6.716 15-15 15z" fill="#ff6d50"/><g fill="#e86348"><path d="m419.5 425.434h40c8.284 0 15-6.716 15-15s-6.716-15-15-15h-40c8.284 0 15 6.716 15 15s-6.716 15-15 15z"/><path d="m459.5 474.434h-40c8.284 0 15 6.716 15 15s-6.716 15-15 15h40c8.284 0 15-6.716 15-15s-6.716-15-15-15z"/></g><path d="m449.5 474.434h-357.5c-13.531 0-24.5-10.969-24.5-24.5 0-13.531 10.969-24.5 24.5-24.5h357.5z" fill="#ebf3ff"/><path d="m409.5 425.434h40v49h-40z" fill="#e0edff"/></g><g><circle cx="256" cy="187.184" fill="#ff6d50" r="31.013"/><path d="m256 156.17c-5.651 0-10.944 1.519-15.507 4.159 9.267 5.363 15.507 15.377 15.507 26.854s-6.239 21.491-15.507 26.854c4.563 2.641 9.856 4.159 15.507 4.159 17.128 0 31.013-13.885 31.013-31.013s-13.885-31.013-31.013-31.013z" fill="#e86348"/><circle cx="217.03" cy="43.209" fill="#ffda03" r="14.437"/><circle cx="400.171" cy="225.422" fill="#ffda03" r="14.437"/><g><circle cx="150.799" cy="292.92" fill="#ffda03" r="14.437"/></g></g></g></g><g><path d="m459.5 432.934c29.71-1.077 29.888-43.847 0-45h-366.673c-54.776-.301-83.801 66.709-44.984 105.485 11.758 11.94 27.44 18.515 44.157 18.515h367.5c31.31-1.532 29.049-46.526-2.5-45v-34zm7.5 56.5c0 4.136-3.365 7.5-7.5 7.5h-367.5c-25.478.542-47.937-22.249-46.994-47.733.389-25.511 21.842-46.267 47.821-46.267h366.673c9.737.26 10.067 14.636 0 15h-367.5c-17.645 0-32 14.355-32 32s14.355 32 32 32h277.659c9.697 0 9.697-15 0-15h-277.659c-9.374 0-17-7.626-17-17s7.626-17 17-17h350v34h-32.378c-9.697 0-9.697 15 0 15h49.878c4.135 0 7.5 3.364 7.5 7.5z"/><path d="m256 225.697c21.236 0 38.513-17.277 38.513-38.513 0-23.444-21.852-41.876-44.967-37.965-4.084.69-6.835 4.561-6.145 8.645s4.562 6.838 8.645 6.145c14.095-2.381 27.467 8.824 27.467 23.175 0 12.965-10.548 23.513-23.513 23.513-13.692 0-24.73-12.256-23.397-25.834.404-4.122-2.609-7.792-6.732-8.197-4.124-.399-7.792 2.609-8.197 6.732-2.182 22.26 15.926 42.299 38.326 42.299z"/><path d="m116.693 205.297c-38.33 44.125-37.939 89.437 13.615 95.397 7.882 19.768 35.884 18.282 41.684-2.162 7.321-1.298 14.904-3.012 22.692-5.126 27.732 108.005 94.964 107.847 122.635-.014 16.852 4.616 35.616 8.003 51.867 7.966 44.294.771 64.075-26.208 47.962-62.077 13.468-16.482-2.412-40.587-22.715-35.019-4.784-5.692-10.06-11.401-15.785-17.089 79.669-78.019 45.914-136.165-61.33-106.199-2.186-8.281-4.639-16.141-7.353-23.491-19.044-55.245-58.465-77.574-89.41-35.924-21.022-3.376-33.959 22.371-18.983 37.199-2.537 6.989-4.842 14.412-6.906 22.213-107.401-29.985-140.879 28.319-61.305 106.213-6.079 6.033-11.66 12.088-16.668 18.113zm37.575 93.63c-1.604.926-3.474 1.173-5.264.693-3.981-1.477-5.616-4.309-4.905-8.496 1.016-3.788 4.917-5.864 8.496-4.905 5.876 1.442 6.977 9.784 1.673 12.708zm141.627 12.761c-32.233 85.053-70.256 42.516-86.833-22.561 15.179-4.9 30.962-11.169 46.956-18.668 15.961 7.474 31.745 13.745 46.926 18.649-2.094 7.975-4.446 15.53-7.049 22.58zm-98.765-124.504c0-11.261.406-22.424 1.184-33.346 18.419-12.42 37.72-23.562 57.686-33.302 19.987 9.75 39.301 20.903 57.721 33.363 1.546 22.162 1.546 44.448-.003 66.61-18.437 12.434-37.753 23.584-57.754 33.306-19.966-9.741-39.265-20.885-57.684-33.306-.758-10.866-1.15-22.01-1.15-33.325zm-14.504 22.269c-9.832-7.275-19.018-14.734-27.417-22.269 8.399-7.535 17.584-14.993 27.416-22.268-.659 14.834-.662 29.703.001 44.537zm17.457-74.714c1.393-12.123 3.264-23.804 5.574-34.826 10.709 3.503 21.744 7.723 32.941 12.593-13.158 6.831-26.018 14.255-38.515 22.233zm73.319-22.234c11.216-4.877 22.269-9.103 32.994-12.609 2.326 11.041 4.193 22.725 5.577 34.876-12.518-7.987-25.394-15.425-38.571-22.267zm55.975 52.476c9.802 7.268 18.984 14.729 27.374 22.24-8.388 7.522-17.56 14.969-27.377 22.232.662-14.812.663-29.661.003-44.472zm-17.405 74.612c-1.384 12.152-3.251 23.836-5.577 34.878-10.725-3.506-21.777-7.732-32.992-12.608 13.176-6.847 26.055-14.278 38.569-22.27zm-92.907 11.564c6.476 3.739 12.977 7.299 19.475 10.674-11.195 4.855-22.247 9.076-32.947 12.586-2.32-11.026-4.183-22.692-5.565-34.824 6.189 3.953 12.542 7.814 19.037 11.564zm184.574-31.742c5.305 2.926 4.203 11.265-1.673 12.707-3.7.991-7.504-1.204-8.495-4.905-.711-4.186.924-7.018 4.905-8.496 1.801-.474 3.555-.243 5.263.694zm-21.496-6.46c-11.14 15.929 3.014 37.397 21.973 34.04 19.792 48.17-45.077 42.924-83.318 31.805 3.345-15.605 5.806-32.416 7.314-49.982 14.449-10.082 27.77-20.612 39.606-31.304 5.239 5.17 10.069 10.332 14.425 15.441zm-38.267-122.574c89.775-14.61 71.948 39.585 23.879 86.48-11.833-10.696-25.154-21.229-39.645-31.331-1.508-17.559-3.969-34.364-7.312-49.964 7.952-2.173 15.672-3.915 23.078-5.185zm-126.846-54.109c9.167.291 9.165 13.583 0 13.874-9.168-.292-9.165-13.584 0-13.874zm-1.787 28.794c19.163 1.572 31.156-21.562 18.491-36.054 31.82-41.238 59.717 17.565 69.209 56.246-15.187 4.906-30.977 11.18-46.943 18.657-15.956-7.472-31.735-13.743-46.912-18.647 1.856-7.118 3.91-13.878 6.155-20.202zm-87.014 94.416c-57.541-70.441-1.692-82.102 62.955-63.92-3.347 15.596-5.808 32.399-7.311 49.999-14.453 10.085-27.776 20.619-39.614 31.315-5.859-5.801-11.227-11.615-16.03-17.394zm55.659 69.336c1.507 17.554 3.966 34.355 7.307 49.951-7.097 1.953-13.983 3.555-20.585 4.773-8.226-17.605-33.893-16.108-40.457 2.007-51.625-6.932-14.646-60.497 14.105-88.056 11.843 10.698 25.171 21.236 39.63 31.325z"/><g><path d="m474.524 149.708c-4.142 0-7.5 3.358-7.5 7.5v11.729c.305 9.91 14.694 9.914 15 0v-11.729c0-4.142-3.357-7.5-7.5-7.5z"/><path d="m474.524 197.929c-4.142 0-7.5 3.358-7.5 7.5v11.729c.305 9.91 14.694 9.914 15 0v-11.729c0-4.142-3.357-7.5-7.5-7.5z"/><path d="m504.5 179.684h-11.729c-4.142 0-7.5 3.358-7.5 7.5s3.358 7.5 7.5 7.5h11.729c9.91-.305 9.914-14.695 0-15z"/><path d="m444.549 194.684h11.729c4.142 0 7.5-3.358 7.5-7.5s-3.358-7.5-7.5-7.5h-11.729c-9.91.304-9.914 14.694 0 15z"/></g><path d="m44.654 54.515c4.142 0 7.5-3.358 7.5-7.5v-11.729c-.305-9.91-14.694-9.914-15 0v11.729c0 4.142 3.358 7.5 7.5 7.5z"/><path d="m44.654 102.736c4.142 0 7.5-3.358 7.5-7.5v-11.729c-.305-9.91-14.694-9.914-15 0v11.729c0 4.142 3.358 7.5 7.5 7.5z"/><path d="m62.9 72.761h11.73c4.142 0 7.5-3.358 7.5-7.5s-3.358-7.5-7.5-7.5h-11.73c-9.91.305-9.914 14.694 0 15z"/><path d="m14.679 72.761h11.729c4.142 0 7.5-3.358 7.5-7.5s-3.358-7.5-7.5-7.5h-11.729c-9.91.305-9.914 14.694 0 15z"/><g><path d="m29.976 277.384v11.729c0 4.142 3.358 7.5 7.5 7.5s7.5-3.358 7.5-7.5v-11.729c-.305-9.911-14.695-9.914-15 0z"/><path d="m44.976 337.335v-11.729c0-4.142-3.358-7.5-7.5-7.5s-7.5 3.358-7.5 7.5v11.729c.304 9.91 14.694 9.914 15 0z"/><path d="m55.721 299.859c-9.91.305-9.914 14.694 0 15h11.729c4.142 0 7.5-3.358 7.5-7.5s-3.358-7.5-7.5-7.5z"/><path d="m19.229 299.859h-11.729c-4.142 0-7.5 3.358-7.5 7.5s3.358 7.5 7.5 7.5h11.729c9.911-.305 9.915-14.695 0-15z"/></g></g></g></svg>