<svg xmlns="http://www.w3.org/2000/svg" height="512pt" version="1.1" viewBox="0 0 512 512" width="512pt">
<g id="surface1">
<path d="M 512 256 C 512 397.386719 397.386719 512 256 512 C 114.613281 512 0 397.386719 0 256 C 0 114.613281 114.613281 0 256 0 C 397.386719 0 512 114.613281 512 256 Z M 512 256 " style=" stroke:none;fill-rule:nonzero;fill:rgb(25.490196%,28.627451%,32.156863%);fill-opacity:1;" />
<path d="M 512 256 C 512 248.734375 511.679688 241.542969 511.085938 234.429688 L 404.761719 127.921875 L 291.667969 108 L 269.066406 146.265625 L 212.171875 89.371094 L 110.261719 135.667969 L 126.5625 238.511719 L 110.261719 388.390625 L 232.816406 510.945312 C 240.453125 511.628906 248.183594 512 256 512 C 397.386719 512 512 397.386719 512 256 Z M 512 256 " style=" stroke:none;fill-rule:nonzero;fill:rgb(20%,22.352941%,25.098039%);fill-opacity:1;" />
<path d="M 256 210 C 281.40625 210 302 230.59375 302 256 C 302 281.40625 281.40625 302 256 302 C 230.59375 302 210 281.40625 210 256 C 210 230.59375 230.59375 210 256 210 " style=" stroke:none;fill-rule:nonzero;fill:rgb(100%,83.137255%,0%);fill-opacity:1;" />
<path d="M 256 302 C 281.40625 302 302 281.40625 302 256 C 302 230.59375 281.40625 210 256 210 Z M 256 302 " style=" stroke:none;fill-rule:nonzero;fill:rgb(99.215686%,72.941176%,7.058824%);fill-opacity:1;" />
<path d="M 395.167969 256 C 401.742188 243.082031 406.992188 230.117188 410.742188 217.355469 C 423.296875 174.671875 417.890625 138.84375 395.523438 116.476562 C 373.15625 94.109375 337.332031 88.703125 294.644531 101.253906 C 281.882812 105.007812 268.917969 110.257812 256 116.832031 C 243.082031 110.257812 230.117188 105.007812 217.355469 101.253906 C 174.667969 88.703125 138.84375 94.109375 116.476562 116.476562 C 94.109375 138.84375 88.703125 174.671875 101.253906 217.355469 C 105.007812 230.117188 110.257812 243.082031 116.832031 256 C 110.257812 268.917969 105.007812 281.882812 101.253906 294.644531 C 88.703125 337.328125 94.109375 373.15625 116.476562 395.523438 C 130.949219 409.996094 151.054688 417.367188 175.011719 417.367188 C 188.078125 417.367188 202.289062 415.175781 217.355469 410.742188 C 230.117188 406.992188 243.082031 401.742188 256 395.164062 C 268.917969 401.742188 281.882812 406.988281 294.644531 410.742188 C 309.710938 415.175781 323.921875 417.367188 336.988281 417.367188 C 360.941406 417.367188 381.050781 409.996094 395.523438 395.523438 C 417.890625 373.15625 423.296875 337.328125 410.746094 294.644531 C 406.992188 281.882812 401.742188 268.917969 395.167969 256 Z M 301.507812 124.589844 C 335.261719 114.664062 362.539062 117.890625 378.324219 133.675781 C 394.109375 149.460938 397.335938 176.742188 387.410156 210.492188 C 385.480469 217.046875 383.101562 223.671875 380.308594 230.328125 C 368.058594 211.476562 353.128906 193.09375 336.015625 175.984375 C 318.90625 158.871094 300.523438 143.941406 281.671875 131.691406 C 288.328125 128.898438 294.953125 126.519531 301.507812 124.589844 Z M 367.535156 256 C 355.078125 277.679688 338.539062 299.097656 318.816406 318.816406 C 299.097656 338.539062 277.675781 355.078125 256 367.535156 C 234.320312 355.078125 212.902344 338.539062 193.183594 318.816406 C 173.460938 299.097656 156.921875 277.675781 144.464844 256 C 156.921875 234.320312 173.460938 212.902344 193.183594 193.183594 C 212.902344 173.460938 234.324219 156.921875 256 144.464844 C 277.679688 156.921875 299.097656 173.460938 318.820312 193.183594 C 338.539062 212.902344 355.078125 234.320312 367.535156 256 Z M 124.589844 210.492188 C 114.664062 176.742188 117.890625 149.460938 133.675781 133.675781 C 143.453125 123.898438 157.636719 118.941406 175.042969 118.941406 C 185.734375 118.941406 197.648438 120.8125 210.492188 124.589844 C 217.046875 126.519531 223.671875 128.898438 230.328125 131.691406 C 211.476562 143.9375 193.09375 158.871094 175.980469 175.980469 C 158.871094 193.09375 143.941406 211.476562 131.691406 230.328125 C 128.898438 223.671875 126.519531 217.046875 124.589844 210.492188 Z M 210.492188 387.410156 C 176.742188 397.335938 149.460938 394.109375 133.675781 378.324219 C 117.890625 362.539062 114.664062 335.257812 124.589844 301.507812 C 126.519531 294.953125 128.898438 288.328125 131.691406 281.671875 C 143.941406 300.523438 158.871094 318.90625 175.984375 336.015625 C 193.09375 353.128906 211.476562 368.058594 230.328125 380.308594 C 223.671875 383.101562 217.046875 385.480469 210.492188 387.410156 Z M 378.324219 378.324219 C 362.539062 394.109375 335.257812 397.335938 301.507812 387.410156 C 294.953125 385.480469 288.328125 383.101562 281.671875 380.308594 C 300.523438 368.058594 318.90625 353.128906 336.015625 336.015625 C 353.128906 318.90625 368.058594 300.523438 380.308594 281.671875 C 383.101562 288.328125 385.480469 294.953125 387.410156 301.507812 C 397.335938 335.257812 394.109375 362.539062 378.324219 378.324219 Z M 378.324219 378.324219 " style=" stroke:none;fill-rule:nonzero;fill:rgb(100%,100%,100%);fill-opacity:1;" />
<path d="M 256 395.167969 C 268.917969 401.742188 281.882812 406.992188 294.644531 410.746094 C 309.710938 415.175781 323.921875 417.367188 336.988281 417.367188 C 360.941406 417.367188 381.050781 409.996094 395.523438 395.523438 C 417.890625 373.15625 423.296875 337.328125 410.746094 294.644531 C 406.992188 281.882812 401.742188 268.917969 395.167969 256 C 401.742188 243.082031 406.992188 230.117188 410.746094 217.355469 C 423.296875 174.671875 417.890625 138.84375 395.523438 116.476562 C 373.15625 94.109375 337.332031 88.703125 294.644531 101.253906 C 281.882812 105.007812 268.917969 110.257812 256 116.832031 L 256 144.464844 C 277.679688 156.921875 299.097656 173.460938 318.820312 193.183594 C 338.539062 212.902344 355.078125 234.324219 367.535156 256 C 355.078125 277.679688 338.539062 299.097656 318.820312 318.816406 C 299.097656 338.539062 277.679688 355.078125 256 367.535156 Z M 378.324219 378.324219 C 362.539062 394.109375 335.257812 397.335938 301.507812 387.410156 C 294.953125 385.480469 288.328125 383.101562 281.671875 380.308594 C 300.523438 368.058594 318.90625 353.128906 336.015625 336.015625 C 353.128906 318.90625 368.058594 300.523438 380.308594 281.671875 C 383.101562 288.328125 385.480469 294.953125 387.410156 301.507812 C 397.335938 335.257812 394.109375 362.539062 378.324219 378.324219 Z M 387.410156 210.492188 C 385.480469 217.046875 383.101562 223.671875 380.308594 230.328125 C 368.058594 211.476562 353.128906 193.09375 336.015625 175.984375 C 318.90625 158.871094 300.523438 143.941406 281.671875 131.691406 C 288.328125 128.898438 294.953125 126.519531 301.507812 124.589844 C 335.261719 114.664062 362.539062 117.890625 378.324219 133.675781 C 394.109375 149.460938 397.335938 176.742188 387.410156 210.492188 Z M 387.410156 210.492188 " style=" stroke:none;fill-rule:nonzero;fill:rgb(91.372549%,92.941176%,96.078431%);fill-opacity:1;" />
<path d="M 220.980469 111 C 220.980469 128.109375 207.109375 141.980469 190 141.980469 C 172.890625 141.980469 159.019531 128.109375 159.019531 111 C 159.019531 93.890625 172.890625 80.019531 190 80.019531 C 207.109375 80.019531 220.980469 93.890625 220.980469 111 Z M 220.980469 111 " style=" stroke:none;fill-rule:nonzero;fill:rgb(99.607843%,41.568627%,8.627451%);fill-opacity:1;" />
<path d="M 352.980469 401 C 352.980469 418.109375 339.109375 431.980469 322 431.980469 C 304.890625 431.980469 291.019531 418.109375 291.019531 401 C 291.019531 383.890625 304.890625 370.019531 322 370.019531 C 339.109375 370.019531 352.980469 383.890625 352.980469 401 Z M 352.980469 401 " style=" stroke:none;fill-rule:nonzero;fill:rgb(94.901961%,27.058824%,0%);fill-opacity:1;" />
</g>
</svg>