<svg id="_x33_0" enable-background="new 0 0 62 62" height="512" viewBox="0 0 62 62" width="512" xmlns="http://www.w3.org/2000/svg"><g><g><g><path d="m49.99 29h10.02c-1.12 2.08-3.06 3.54-5.01 5-1.95-1.46-3.89-2.92-5.01-5z" fill="#ffeaa7"/></g><g><path d="m61 43h-12c0-1.58.37-2.88.98-4h.01 10.02.01c.61 1.12.98 2.42.98 4z" fill="#ffeaa7"/></g><g><path d="m49.99 47h10.02c-1.12 2.08-3.06 3.54-5.01 5-1.95-1.46-3.89-2.92-5.01-5z" fill="#ffeaa7"/></g><g><path d="m61 61h-12c0-1.58.37-2.89.99-4.01l.01.01h10l.01-.01c.62 1.12.99 2.43.99 4.01z" fill="#ffeaa7"/></g><g><path d="m13 61h-12c0-1.58.37-2.89.99-4.01l.01.01h10l.01-.01c.62 1.12.99 2.43.99 4.01z" fill="#ffeaa7"/></g><g><path d="m1.99 47h10.02c-1.12 2.08-3.06 3.54-5.01 5-1.95-1.46-3.89-2.92-5.01-5z" fill="#ffeaa7"/></g><g><path d="m13 43h-12c0-1.58.37-2.88.98-4h.01 10.02.01c.61 1.12.98 2.42.98 4z" fill="#ffeaa7"/></g><g><path d="m1.99 29h10.02c-1.12 2.08-3.06 3.54-5.01 5-1.95-1.46-3.89-2.92-5.01-5z" fill="#ffeaa7"/></g><g><path d="m49 25h12c0 1.58-.37 2.88-.98 4h-.01-10.02-.01c-.61-1.12-.98-2.42-.98-4z" fill="#fcd770"/></g><g><path d="m60.01 39h-10.02c1.12-2.08 3.06-3.54 5.01-5 1.95 1.46 3.89 2.92 5.01 5z" fill="#fcd770"/></g><g><path d="m49 43h12c0 1.58-.37 2.88-.98 4h-.01-10.02-.01c-.61-1.12-.98-2.42-.98-4z" fill="#fcd770"/></g><g><path d="m60.01 56.99-.01.01h-10l-.01-.01c1.12-2.07 3.07-3.53 5.01-4.99 1.94 1.46 3.89 2.92 5.01 4.99z" fill="#fcd770"/></g><g><path d="m12.01 56.99-.01.01h-10l-.01-.01c1.12-2.07 3.07-3.53 5.01-4.99 1.94 1.46 3.89 2.92 5.01 4.99z" fill="#fcd770"/></g><g><path d="m1 43h12c0 1.58-.37 2.88-.98 4h-.01-10.02-.01c-.61-1.12-.98-2.42-.98-4z" fill="#fcd770"/></g><g><path d="m12.01 39h-10.02c1.12-2.08 3.06-3.54 5.01-5 1.95 1.46 3.89 2.92 5.01 5z" fill="#fcd770"/></g><g><path d="m1 25h12c0 1.58-.37 2.88-.98 4h-.01-10.02-.01c-.61-1.12-.98-2.42-.98-4z" fill="#fcd770"/></g><g><path d="m45 13c-.38 0-.74.05-1.09.15.06-.37.09-.76.09-1.15 0-3.87-3.13-7-7-7-1.31 0-2.55.36-3.59.99-1.19-2.93-4.06-4.99-7.41-4.99-4.42 0-8 3.58-8 8 0 .69.09 1.37.25 2.01-.08-.01-.17-.01-.25-.01-2.7 0-5 2.3-5 5 0 2.76 2.24 5 5 5h6 1c1.1 0 2 .9 2 2v10h4 4v-10c0-1.1.9-2 2-2h5 2.83c2.09 0 3.95-1.53 4.15-3.61.23-2.38-1.64-4.39-3.98-4.39z" fill="#ccd1d9"/></g><g><path d="m43 39v4 2h-11c-3.25 0-3.25 2-6.5 2s-3.25-2-6.5-2v-5c0-1.26-.59-2.44-1.6-3.2l-1.87-1.4c-.33-.25-.53-.65-.53-1.07 0-.73.6-1.33 1.33-1.33h10.67 4 4 7c.55 0 1 .45 1 1z" fill="#e6e9ed"/></g><g><path d="m32 45c-3.25 0-3.25 2-6.5 2s-3.25-2-6.5-2v12c0 2.21 1.79 4 4 4h16c2.21 0 4-1.79 4-4v-10-2z" fill="#69d6f4"/></g><g><circle cx="55" cy="7" fill="#4fc1e9" r="2"/></g><g><circle cx="3" cy="13" fill="#4fc1e9" r="2"/></g><g><circle cx="11" cy="4" fill="#4fc1e9" r="3"/></g><g><circle cx="25" cy="39" fill="#4fc1e9" r="2"/></g><g><circle cx="31" cy="55" fill="#4fc1e9" r="2"/></g><g><circle cx="21" cy="51" fill="#4fc1e9" r="2"/></g></g><g><path d="m37 22h7.828c2.646 0 4.907-1.982 5.148-4.512.135-1.407-.331-2.811-1.276-3.851s-2.295-1.637-3.7-1.637c0-4.411-3.589-8-8-8-1.106 0-2.165.237-3.135.655-1.571-2.853-4.546-4.655-7.865-4.655-4.963 0-9 4.038-9 9 0 .363.025.725.068 1.083-2.827.465-5.068 2.982-5.068 5.917 0 3.308 2.691 6 6 6h7c.552 0 1 .449 1 1v9h-9.667c-1.286 0-2.333 1.047-2.333 2.333 0 .731.35 1.429.934 1.867l1.866 1.4c.752.563 1.2 1.461 1.2 2.4v17c0 2.757 2.243 5 5 5h16c2.757 0 5-2.243 5-5v-23c0-1.103-.897-2-2-2h-6v-9c0-.551.448-1 1-1zm5 16h-6v2h6v2h-4v2h4v2h-6v2h6v9c0 1.654-1.346 3-3 3h-16c-1.654 0-3-1.346-3-3v-3.184c.314.112.648.184 1 .184 1.654 0 3-1.346 3-3s-1.346-3-3-3c-.352 0-.686.072-1 .184v-2.093c.705.138 1.177.423 1.726.76.875.539 1.866 1.149 3.774 1.149s2.899-.61 3.774-1.148c.773-.476 1.384-.852 2.726-.852v-2c-1.908 0-2.899.61-3.774 1.148-.773.476-1.384.852-2.726.852s-1.953-.376-2.726-.852c-.706-.435-1.497-.91-2.774-1.079v-4.069c0-1.565-.747-3.061-2-4l-1.867-1.4c-.083-.063-.133-.162-.133-.267 0-.184.149-.333.333-.333h25.667zm-22 13c0-.551.448-1 1-1s1 .449 1 1-.448 1-1 1-1-.449-1-1zm12-19v-8h-2v8h-2v-9c0-.92-.425-1.735-1.08-2.286.665-.714 1.08-1.664 1.08-2.714h-2c0 1.103-.897 2-2 2h-6c-2.206 0-4-1.794-4-4 0-2.168 1.832-4 4-4 2.206 0 4 1.794 4 4h2c0-2.933-2.117-5.377-4.903-5.895-.058-.364-.097-.732-.097-1.105 0-3.86 3.141-7 7-7 2.599 0 4.925 1.421 6.141 3.666-1.41 1.083-2.462 2.621-2.906 4.411-1.84.359-3.235 1.979-3.235 3.923h2c0-1.103.897-2 2-2s2 .897 2 2h2c0-1.756-1.144-3.235-2.721-3.771.766-2.463 3.073-4.229 5.721-4.229 3.309 0 6 2.691 6 6 0 .151-.025.3-.036.451-1.356.607-2.417 1.791-2.806 3.3l1.938.499c.34-1.325 1.534-2.25 2.904-2.25.844 0 1.653.358 2.221.983.575.633.848 1.455.766 2.315-.145 1.515-1.533 2.702-3.159 2.702h-2.828c-2.206 0-4-1.794-4-4h-2c0 1.538.586 2.937 1.54 4h-1.54c-2.206 0-4-1.794-4-4h-2c0 2.712 1.809 5.006 4.283 5.747-.177.382-.283.804-.283 1.253v9z"/><path d="m14 43c0-4.419-2.655-6.924-5.344-9 2.689-2.076 5.344-4.581 5.344-9v-1h-14v1c0 4.419 2.655 6.924 5.344 9-2.689 2.076-5.344 4.581-5.344 9s2.655 6.924 5.344 9c-2.689 2.076-5.344 4.581-5.344 9v1h14v-1c0-4.419-2.655-6.924-5.344-9 2.689-2.076 5.344-4.581 5.344-9zm-2.081-1h-9.838c.092-.732.283-1.393.553-2h8.732c.27.607.462 1.268.553 2zm-9.838 2h9.839c-.092.732-.283 1.393-.553 2h-8.733c-.27-.607-.462-1.268-.553-2zm9.859-18c-.091.734-.287 1.392-.556 2h-8.768c-.269-.608-.466-1.266-.556-2zm-8.034 4h6.189c-.869 1.009-1.951 1.883-3.095 2.749-1.144-.866-2.226-1.74-3.094-2.749zm3.094 5.251c1.142.864 2.216 1.742 3.083 2.749h-6.166c.867-1.007 1.941-1.884 3.083-2.749zm-4.94 24.749c.091-.734.287-1.392.556-2h8.768c.269.608.466 1.266.556 2zm8.034-4h-6.188c.868-1.009 1.95-1.883 3.094-2.749 1.144.866 2.226 1.74 3.094 2.749zm-3.094-5.251c-1.142-.865-2.216-1.742-3.083-2.749h6.166c-.867 1.007-1.941 1.884-3.083 2.749z"/><path d="m62 25v-1h-14v1c0 4.419 2.655 6.924 5.344 9-2.689 2.076-5.344 4.581-5.344 9s2.655 6.924 5.344 9c-2.689 2.076-5.344 4.581-5.344 9v1h14v-1c0-4.419-2.655-6.924-5.344-9 2.689-2.076 5.344-4.581 5.344-9s-2.655-6.924-5.344-9c2.689-2.076 5.344-4.581 5.344-9zm-2.06 1c-.091.734-.287 1.392-.556 2h-8.768c-.269-.608-.466-1.266-.556-2zm-9.859 18h9.839c-.092.732-.283 1.393-.553 2h-8.732c-.271-.607-.463-1.268-.554-2zm9.838-2h-9.839c.092-.732.283-1.393.553-2h8.732c.271.607.463 1.268.554 2zm-9.859 18c.091-.734.287-1.392.556-2h8.768c.269.608.466 1.266.556 2zm8.034-4h-6.189c.868-1.009 1.951-1.883 3.094-2.749 1.145.866 2.227 1.74 3.095 2.749zm-3.094-5.251c-1.142-.864-2.216-1.742-3.083-2.749h6.166c-.867 1.007-1.941 1.884-3.083 2.749zm3.083-12.749h-6.166c.867-1.007 1.941-1.884 3.083-2.749 1.142.865 2.216 1.742 3.083 2.749zm-3.083-5.251c-1.144-.866-2.226-1.74-3.094-2.749h6.189c-.869 1.009-1.951 1.883-3.095 2.749z"/><path d="m25 42c1.654 0 3-1.346 3-3s-1.346-3-3-3-3 1.346-3 3 1.346 3 3 3zm0-4c.552 0 1 .449 1 1s-.448 1-1 1-1-.449-1-1 .448-1 1-1z"/><path d="m28 55c0 1.654 1.346 3 3 3s3-1.346 3-3-1.346-3-3-3-3 1.346-3 3zm4 0c0 .551-.448 1-1 1s-1-.449-1-1 .448-1 1-1 1 .449 1 1z"/><path d="m3 16c1.654 0 3-1.346 3-3s-1.346-3-3-3-3 1.346-3 3 1.346 3 3 3zm0-4c.552 0 1 .449 1 1s-.448 1-1 1-1-.449-1-1 .448-1 1-1z"/><path d="m55 10c1.654 0 3-1.346 3-3s-1.346-3-3-3-3 1.346-3 3 1.346 3 3 3zm0-4c.552 0 1 .449 1 1s-.448 1-1 1-1-.449-1-1 .448-1 1-1z"/><path d="m11 8c2.206 0 4-1.794 4-4s-1.794-4-4-4-4 1.794-4 4 1.794 4 4 4zm0-6c1.103 0 2 .897 2 2s-.897 2-2 2-2-.897-2-2 .897-2 2-2z"/></g></g></svg>