<svg id="_x33_0" enable-background="new 0 0 62 62" height="512" viewBox="0 0 62 62" width="512" xmlns="http://www.w3.org/2000/svg"><g><g><path d="m32 44c-1.908 0-2.899.61-3.774 1.148-.773.476-1.384.852-2.726.852s-1.953-.376-2.726-.852c-.875-.538-1.866-1.148-3.774-1.148v13c0 2.209 1.791 4 4 4h16c2.209 0 4-1.791 4-4v-13z" fill="#f0bc5e"/></g><g><path d="m37 22h7.828c2.646 0 4.907-1.982 5.148-4.512.135-1.407-.331-2.811-1.276-3.851s-2.295-1.637-3.7-1.637c0-4.411-3.589-8-8-8-1.106 0-2.165.237-3.135.655-1.571-2.853-4.546-4.655-7.865-4.655-4.963 0-9 4.038-9 9 0 .363.025.725.068 1.083-2.827.465-5.068 2.982-5.068 5.917 0 3.308 2.691 6 6 6h7c.552 0 1 .449 1 1v9h-9.667c-1.286 0-2.333 1.047-2.333 2.333 0 .731.35 1.429.934 1.867l1.866 1.4c.752.563 1.2 1.461 1.2 2.4v17c0 2.757 2.243 5 5 5h16c2.757 0 5-2.243 5-5v-23c0-1.103-.897-2-2-2h-6v-9c0-.551.448-1 1-1zm5 16h-6v2h6v2h-4v2h4v2h-6v2h6v9c0 1.654-1.346 3-3 3h-16c-1.654 0-3-1.346-3-3v-3.184c.314.112.648.184 1 .184 1.654 0 3-1.346 3-3s-1.346-3-3-3c-.352 0-.686.072-1 .184v-8.184c0-1.565-.747-3.061-2-4l-1.867-1.4c-.083-.063-.133-.162-.133-.267 0-.184.149-.333.333-.333h25.667zm-22 13c0-.551.448-1 1-1s1 .449 1 1-.448 1-1 1-1-.449-1-1zm12-19v-8h-2v8h-2v-9c0-.92-.425-1.735-1.08-2.286.665-.714 1.08-1.664 1.08-2.714h-2c0 1.103-.897 2-2 2h-6c-2.206 0-4-1.794-4-4 0-2.168 1.832-4 4-4 2.206 0 4 1.794 4 4h2c0-2.933-2.117-5.377-4.903-5.895-.058-.364-.097-.732-.097-1.105 0-3.86 3.141-7 7-7 2.599 0 4.925 1.421 6.141 3.666-1.41 1.083-2.462 2.621-2.906 4.411-1.84.359-3.235 1.979-3.235 3.923h2c0-1.103.897-2 2-2s2 .897 2 2h2c0-1.756-1.144-3.235-2.721-3.771.766-2.463 3.073-4.229 5.721-4.229 3.309 0 6 2.691 6 6 0 .151-.025.3-.036.451-1.356.607-2.417 1.791-2.806 3.3l1.938.499c.34-1.325 1.534-2.25 2.904-2.25.844 0 1.653.358 2.221.983.575.633.848 1.455.766 2.315-.145 1.515-1.533 2.702-3.159 2.702h-2.828c-2.206 0-4-1.794-4-4h-2c0 1.538.586 2.937 1.54 4h-1.54c-2.206 0-4-1.794-4-4h-2c0 2.712 1.809 5.006 4.283 5.747-.177.382-.283.804-.283 1.253v9z"/><path d="m14 43c0-4.419-2.655-6.924-5.344-9 2.689-2.076 5.344-4.581 5.344-9v-1h-14v1c0 4.419 2.655 6.924 5.344 9-2.689 2.076-5.344 4.581-5.344 9s2.655 6.924 5.344 9c-2.689 2.076-5.344 4.581-5.344 9v1h14v-1c0-4.419-2.655-6.924-5.344-9 2.689-2.076 5.344-4.581 5.344-9zm-2.081-1h-9.838c.092-.732.283-1.393.553-2h8.732c.27.607.462 1.268.553 2zm-9.838 2h9.839c-.092.732-.283 1.393-.553 2h-8.733c-.27-.607-.462-1.268-.553-2zm9.859-18c-.091.734-.287 1.392-.556 2h-8.768c-.269-.608-.466-1.266-.556-2zm-8.034 4h6.189c-.869 1.009-1.951 1.883-3.095 2.749-1.144-.866-2.226-1.74-3.094-2.749zm3.094 5.251c1.142.864 2.216 1.742 3.083 2.749h-6.166c.867-1.007 1.941-1.884 3.083-2.749zm-4.94 24.749c.091-.734.287-1.392.556-2h8.768c.269.608.466 1.266.556 2zm8.034-4h-6.188c.868-1.009 1.95-1.883 3.094-2.749 1.144.866 2.226 1.74 3.094 2.749zm-3.094-5.251c-1.142-.865-2.216-1.742-3.083-2.749h6.166c-.867 1.007-1.941 1.884-3.083 2.749z"/><path d="m62 25v-1h-14v1c0 4.419 2.655 6.924 5.344 9-2.689 2.076-5.344 4.581-5.344 9s2.655 6.924 5.344 9c-2.689 2.076-5.344 4.581-5.344 9v1h14v-1c0-4.419-2.655-6.924-5.344-9 2.689-2.076 5.344-4.581 5.344-9s-2.655-6.924-5.344-9c2.689-2.076 5.344-4.581 5.344-9zm-2.06 1c-.091.734-.287 1.392-.556 2h-8.768c-.269-.608-.466-1.266-.556-2zm-9.859 18h9.839c-.092.732-.283 1.393-.553 2h-8.732c-.271-.607-.463-1.268-.554-2zm9.838-2h-9.839c.092-.732.283-1.393.553-2h8.732c.271.607.463 1.268.554 2zm-9.859 18c.091-.734.287-1.392.556-2h8.768c.269.608.466 1.266.556 2zm8.034-4h-6.189c.868-1.009 1.951-1.883 3.094-2.749 1.145.866 2.227 1.74 3.095 2.749zm-3.094-5.251c-1.142-.864-2.216-1.742-3.083-2.749h6.166c-.867 1.007-1.941 1.884-3.083 2.749zm3.083-12.749h-6.166c.867-1.007 1.941-1.884 3.083-2.749 1.142.865 2.216 1.742 3.083 2.749zm-3.083-5.251c-1.144-.866-2.226-1.74-3.094-2.749h6.189c-.869 1.009-1.951 1.883-3.095 2.749z"/><path d="m25 42c1.654 0 3-1.346 3-3s-1.346-3-3-3-3 1.346-3 3 1.346 3 3 3zm0-4c.552 0 1 .449 1 1s-.448 1-1 1-1-.449-1-1 .448-1 1-1z"/><path d="m31 58c1.654 0 3-1.346 3-3s-1.346-3-3-3-3 1.346-3 3 1.346 3 3 3zm0-4c.552 0 1 .449 1 1s-.448 1-1 1-1-.449-1-1 .448-1 1-1z"/><path d="m3 16c1.654 0 3-1.346 3-3s-1.346-3-3-3-3 1.346-3 3 1.346 3 3 3zm0-4c.552 0 1 .449 1 1s-.448 1-1 1-1-.449-1-1 .448-1 1-1z"/><path d="m55 10c1.654 0 3-1.346 3-3s-1.346-3-3-3-3 1.346-3 3 1.346 3 3 3zm0-4c.552 0 1 .449 1 1s-.448 1-1 1-1-.449-1-1 .448-1 1-1z"/><path d="m11 8c2.206 0 4-1.794 4-4s-1.794-4-4-4-4 1.794-4 4 1.794 4 4 4zm0-6c1.103 0 2 .897 2 2s-.897 2-2 2-2-.897-2-2 .897-2 2-2z"/></g></g></svg>