<svg id="Layer_1" enable-background="new 0 0 512 512" height="512" viewBox="0 0 512 512" width="512" xmlns="http://www.w3.org/2000/svg"><g><path d="m378.639 191c6.078-6.033 11.659-12.088 16.668-18.114 25.288-30.422 33.405-57.24 22.856-75.511s-37.833-24.649-76.823-17.962c-7.723 1.325-15.757 3.131-24.021 5.378-2.186-8.281-4.639-16.141-7.353-23.491-13.702-37.112-32.868-57.55-53.966-57.55s-40.264 20.438-53.966 57.55c-2.714 7.35-5.167 15.211-7.353 23.491-8.264-2.247-16.298-4.053-24.021-5.378-38.991-6.688-66.274-.31-76.823 17.962s-2.432 45.089 22.856 75.511c5.009 6.026 10.59 12.08 16.668 18.114-6.078 6.033-11.659 12.088-16.668 18.114-25.288 30.422-33.405 57.24-22.856 75.511 7.818 13.541 24.823 20.549 48.976 20.549 8.438 0 17.751-.856 27.847-2.588 7.723-1.325 15.757-3.131 24.021-5.378 2.186 8.281 4.639 16.141 7.353 23.492 13.703 37.111 32.868 57.55 53.966 57.55s40.264-20.438 53.966-57.55c2.714-7.35 5.167-15.211 7.353-23.492 8.264 2.247 16.298 4.053 24.021 5.378 10.098 1.732 19.407 2.588 27.847 2.588 24.15 0 41.159-7.01 48.976-20.549 10.549-18.271 2.432-45.089-22.856-75.511-5.008-6.026-10.589-12.081-16.668-18.114zm-34.763-96.803c9.462-1.623 18.084-2.422 25.716-2.422 18.081 0 30.605 4.482 35.581 13.1 7.075 12.254-.726 33.549-21.401 58.423-4.804 5.779-10.171 11.594-16.03 17.394-11.842-10.699-25.17-21.237-39.63-31.326-1.508-17.566-3.969-34.378-7.314-49.983 7.952-2.174 15.672-3.915 23.078-5.186zm-58.441 147.786c-9.799 5.658-19.646 10.89-29.435 15.665-9.789-4.775-19.636-10.007-29.435-15.665s-19.254-11.569-28.284-17.659c-.759-10.865-1.151-22.009-1.151-33.324 0-11.316.392-22.459 1.151-33.324 9.03-6.09 18.484-12.001 28.284-17.659s19.646-10.89 29.435-15.665c9.789 4.775 19.636 10.007 29.435 15.665s19.254 11.569 28.284 17.659c.759 10.865 1.151 22.009 1.151 33.324s-.392 22.459-1.151 33.324c-9.03 6.09-18.485 12.002-28.284 17.659zm26.537 1.427c-1.384 12.152-3.251 23.836-5.577 34.878-10.725-3.507-21.778-7.732-32.994-12.609 6.518-3.384 13.039-6.955 19.534-10.705s12.848-7.612 19.037-11.564zm-73.374 22.268c-11.216 4.877-22.269 9.103-32.994 12.609-2.326-11.041-4.193-22.726-5.577-34.878 6.19 3.952 12.542 7.814 19.037 11.564s13.017 7.321 19.534 10.705zm-55.972-52.409c-9.832-7.275-19.018-14.734-27.417-22.269 8.399-7.535 17.585-14.994 27.417-22.269-.328 7.337-.496 14.769-.496 22.269s.168 14.933.496 22.269zm17.402-74.679c1.384-12.152 3.251-23.836 5.577-34.878 10.725 3.507 21.778 7.732 32.994 12.609-6.518 3.384-13.039 6.955-19.534 10.705s-12.848 7.612-19.037 11.564zm73.374-22.268c11.216-4.877 22.269-9.103 32.994-12.609 2.326 11.042 4.193 22.726 5.577 34.878-6.19-3.952-12.542-7.814-19.037-11.564s-13.017-7.321-19.534-10.705zm55.972 52.408c9.832 7.275 19.018 14.734 27.417 22.27-8.4 7.535-17.585 14.995-27.417 22.27.328-7.337.496-14.77.496-22.27s-.168-14.933-.496-22.27zm-113.269-102.235c11.204-30.343 25.745-47.745 39.895-47.745s28.691 17.402 39.895 47.745c2.603 7.05 4.955 14.605 7.048 22.58-15.187 4.906-30.977 11.18-46.943 18.657-15.967-7.478-31.757-13.752-46.943-18.657 2.093-7.974 4.445-15.53 7.048-22.58zm-87.876 96.803c-20.676-24.874-28.477-46.168-21.401-58.423 7.075-12.255 29.417-16.147 61.296-10.678 7.407 1.271 15.126 3.012 23.079 5.186-3.345 15.605-5.807 32.417-7.314 49.983-14.459 10.089-27.788 20.626-39.63 31.326-5.859-5.8-11.227-11.615-16.03-17.394zm39.895 124.504c-31.881 5.469-54.221 1.577-61.296-10.677s.726-33.549 21.401-58.423c4.804-5.779 10.171-11.594 16.03-17.394 11.842 10.699 25.171 21.237 39.63 31.326 1.508 17.566 3.969 34.378 7.314 49.982-7.953 2.175-15.673 3.916-23.079 5.186zm127.771 27.702c-11.204 30.344-25.745 47.746-39.895 47.746s-28.691-17.402-39.895-47.746c-2.603-7.05-4.955-14.605-7.048-22.58 15.187-4.906 30.977-11.18 46.943-18.657 15.967 7.478 31.757 13.751 46.943 18.657-2.093 7.975-4.445 15.531-7.048 22.58zm109.278-38.379c-7.075 12.254-29.417 16.146-61.296 10.677-7.407-1.271-15.126-3.012-23.079-5.186 3.345-15.605 5.806-32.416 7.314-49.982 14.459-10.089 27.788-20.626 39.63-31.326 5.859 5.8 11.226 11.615 16.03 17.394 20.675 24.874 28.476 46.169 21.401 58.423z" fill="#c2daf0"/><g><g><path d="m92 508.25c-30.333 0-54.958-24.909-54.494-55.347.456-29.904 25.413-53.653 55.321-53.653h366.673c8.284 0 15 6.716 15 15 0 8.284-6.716 15-15 15h-34.314v49h34.314c8.284 0 15 6.716 15 15 0 8.284-6.716 15-15 15z" fill="#ff6d50"/><g fill="#e86348"><path d="m419.5 429.25h40c8.284 0 15-6.716 15-15s-6.716-15-15-15h-40c8.284 0 15 6.716 15 15s-6.716 15-15 15z"/><path d="m459.5 478.25h-40c8.284 0 15 6.716 15 15s-6.716 15-15 15h40c8.284 0 15-6.716 15-15s-6.716-15-15-15z"/></g><path d="m449.5 478.25h-357.5c-13.531 0-24.5-10.969-24.5-24.5 0-13.531 10.969-24.5 24.5-24.5h357.5z" fill="#ebf3ff"/><path d="m409.5 429.25h40v49h-40z" fill="#e0edff"/></g><g><circle cx="256" cy="191" fill="#ff6d50" r="31.013"/><path d="m256 159.987c-5.651 0-10.944 1.519-15.507 4.159 9.268 5.363 15.507 15.377 15.507 26.854s-6.239 21.491-15.507 26.854c4.563 2.641 9.856 4.159 15.507 4.159 17.128 0 31.013-13.885 31.013-31.013s-13.885-31.013-31.013-31.013z" fill="#e86348"/><circle cx="217.03" cy="47.025" fill="#ffda03" r="14.437"/><circle cx="400.171" cy="229.238" fill="#ffda03" r="14.437"/><g><circle cx="150.799" cy="296.736" fill="#ffda03" r="14.437"/></g></g><g fill="#ffda03"><g><path d="m474.524 153.524c-4.142 0-7.5 3.358-7.5 7.5v11.729c0 4.142 3.358 7.5 7.5 7.5s7.5-3.358 7.5-7.5v-11.729c0-4.142-3.357-7.5-7.5-7.5z"/><path d="m474.524 201.746c-4.142 0-7.5 3.358-7.5 7.5v11.729c0 4.142 3.358 7.5 7.5 7.5s7.5-3.358 7.5-7.5v-11.729c0-4.142-3.357-7.5-7.5-7.5z"/><path d="m504.5 183.5h-11.729c-4.142 0-7.5 3.358-7.5 7.5s3.358 7.5 7.5 7.5h11.729c4.142 0 7.5-3.358 7.5-7.5s-3.358-7.5-7.5-7.5z"/><path d="m456.279 183.5h-11.729c-4.142 0-7.5 3.358-7.5 7.5s3.358 7.5 7.5 7.5h11.729c4.142 0 7.5-3.358 7.5-7.5s-3.358-7.5-7.5-7.5z"/></g><path d="m44.654 58.332c4.142 0 7.5-3.358 7.5-7.5v-11.73c0-4.142-3.358-7.5-7.5-7.5s-7.5 3.358-7.5 7.5v11.729c0 4.143 3.358 7.501 7.5 7.501z"/><path d="m52.154 99.053v-11.73c0-4.142-3.358-7.5-7.5-7.5s-7.5 3.358-7.5 7.5v11.729c0 4.142 3.358 7.5 7.5 7.5s7.5-3.357 7.5-7.499z"/><path d="m74.63 61.577h-11.73c-4.142 0-7.5 3.358-7.5 7.5s3.358 7.5 7.5 7.5h11.73c4.142 0 7.5-3.358 7.5-7.5s-3.358-7.5-7.5-7.5z"/><path d="m14.679 76.577h11.729c4.142 0 7.5-3.358 7.5-7.5s-3.358-7.5-7.5-7.5h-11.729c-4.142 0-7.5 3.358-7.5 7.5s3.358 7.5 7.5 7.5z"/><g><path d="m37.476 273.7c-4.142 0-7.5 3.358-7.5 7.5v11.729c0 4.142 3.358 7.5 7.5 7.5s7.5-3.358 7.5-7.5v-11.729c0-4.142-3.358-7.5-7.5-7.5z"/><path d="m37.476 321.921c-4.142 0-7.5 3.358-7.5 7.5v11.729c0 4.142 3.358 7.5 7.5 7.5s7.5-3.358 7.5-7.5v-11.729c0-4.142-3.358-7.5-7.5-7.5z"/><path d="m67.451 303.675h-11.73c-4.142 0-7.5 3.358-7.5 7.5s3.358 7.5 7.5 7.5h11.729c4.142 0 7.5-3.358 7.5-7.5s-3.357-7.5-7.499-7.5z"/><path d="m19.229 303.675h-11.729c-4.142 0-7.5 3.358-7.5 7.5s3.358 7.5 7.5 7.5h11.729c4.142 0 7.5-3.358 7.5-7.5s-3.357-7.5-7.5-7.5z"/></g></g></g></g></svg>