<svg viewBox="0 0 512 512" xmlns="http://www.w3.org/2000/svg"><path d="m512 256c0 141.386719-114.613281 256-256 256s-256-114.613281-256-256 114.613281-256 256-256 256 114.613281 256 256zm0 0" fill="#9331b2"/><path d="m512 256c0-7.671875-.355469-15.257812-1.019531-22.753906l-80.484375-80.71875c-6.398438-9.0625-17.203125-14.953125-31.730469-17.542969-.390625-.523437-.800781-1.035156-1.230469-1.527344-3.507812-10.160156-13.136718-17.464843-24.488281-17.464843-12.542969 0-23.007813 8.90625-25.410156 20.738281-1.53125.28125-3.082031.59375-4.632813.90625l-46.332031-56.914063c-11.921875-18.082031-25.832031-27.71875-40.671875-27.71875-22.550781 0-42.96875 22.226563-57.496094 62.589844-3.050781 8.46875-5.785156 17.566406-8.203125 27.171875-9.539062-2.667969-18.792969-4.804687-27.660156-6.363281-42.25-7.421875-71.679687-.726563-82.871094 18.855468-11.195312 19.574219-2.03125 48.332032 25.800781 80.976563 5.601563 6.570313 11.84375 13.179687 18.644532 19.765625-6.800782 6.585938-13.042969 13.195312-18.644532 19.765625-27.832031 32.644531-36.996093 61.402344-25.800781 80.976563 2.160157 3.78125 5.003907 7.082031 8.492188 9.890624l144.476562 144.304688c7.664063.691406 15.417969 1.0625 23.261719 1.0625 141.386719 0 256-114.613281 256-256zm0 0" fill="#5c1b6f"/><path d="m293.332031 256c0 20.617188-16.714843 37.332031-37.332031 37.332031s-37.332031-16.714843-37.332031-37.332031 16.714843-37.332031 37.332031-37.332031 37.332031 16.714843 37.332031 37.332031zm0 0" fill="#ff9a00"/><path d="m387.785156 256c6.800782-6.585938 13.042969-13.195312 18.644532-19.765625 27.832031-32.644531 36.992187-61.402344 25.800781-80.976563-11.191407-19.578124-40.625-26.273437-82.871094-18.855468-8.867187 1.558594-18.121094 3.695312-27.660156 6.363281-2.417969-9.605469-5.15625-18.703125-8.203125-27.171875-14.527344-40.363281-34.945313-62.589844-57.496094-62.589844s-42.96875 22.226563-57.496094 62.589844c-3.050781 8.46875-5.785156 17.566406-8.203125 27.171875-9.539062-2.667969-18.792969-4.804687-27.660156-6.363281-42.25-7.421875-71.679687-.726563-82.871094 18.855468-11.195312 19.574219-2.03125 48.332032 25.800781 80.976563 5.601563 6.570313 11.84375 13.179687 18.644532 19.765625-6.800782 6.585938-13.042969 13.195312-18.644532 19.765625-27.832031 32.644531-36.996093 61.402344-25.800781 80.976563 8.214844 14.375 26.257813 21.804687 51.988281 21.804687 9.316407 0 19.648438-.976563 30.882813-2.949219 8.867187-1.558594 18.121094-3.695312 27.660156-6.363281 2.417969 9.605469 5.152344 18.703125 8.203125 27.171875 14.527344 40.363281 34.945313 62.589844 57.496094 62.589844s42.96875-22.226563 57.496094-62.589844c3.050781-8.46875 5.785156-17.566406 8.203125-27.171875 9.539062 2.667969 18.792969 4.804687 27.660156 6.363281 11.238281 1.972656 21.5625 2.949219 30.882813 2.949219 25.730468 0 43.773437-7.429687 51.988281-21.804687 11.195312-19.574219 2.03125-48.332032-25.800781-80.976563-5.601563-6.570313-11.84375-13.179687-18.644532-19.765625zm-35.484375-102.855469c10.300781-1.808593 19.726563-2.695312 28.058594-2.695312 18.894531 0 32.148437 4.558593 37.113281 13.242187 7.15625 12.515625-1.808594 35.507813-23.976562 61.511719-5.453125 6.394531-11.554688 12.832031-18.222656 19.257813-12.78125-11.246094-27.097657-22.332032-42.578126-32.957032-1.507812-18.273437-3.945312-35.796875-7.246093-52.140625 9.277343-2.621093 18.265625-4.710937 26.851562-6.21875zm-65.777343 156.246094c-10.167969 5.8125-20.375 11.210937-30.523438 16.167969-10.148438-4.957032-20.355469-10.355469-30.523438-16.167969-10.320312-5.898437-20.292968-12.050781-29.839843-18.378906-.742188-11.226563-1.136719-22.914063-1.136719-35.011719s.394531-23.785156 1.136719-35.011719c9.546875-6.332031 19.519531-12.480469 29.839843-18.378906 10.167969-5.8125 20.375-11.210937 30.523438-16.167969 10.148438 4.957032 20.355469 10.355469 30.523438 16.167969 10.320312 5.898437 20.292968 12.050781 29.839843 18.378906.742188 11.226563 1.136719 22.914063 1.136719 35.011719 0 12.09375-.394531 23.785156-1.136719 35.011719-9.546875 6.328125-19.519531 12.480469-29.839843 18.378906zm27.949218 3.066406c-1.378906 12.421875-3.183594 24.164063-5.351562 35.117188-10.882813-3.664063-22.070313-7.984375-33.417969-12.917969 6.421875-3.339844 12.851563-6.84375 19.257813-10.503906 6.644531-3.800782 13.152343-7.707032 19.511718-11.695313zm-78.175781 22.199219c-11.347656 4.933594-22.535156 9.253906-33.417969 12.917969-2.167968-10.957031-3.972656-22.695313-5.351562-35.121094 6.359375 3.992187 12.867187 7.898437 19.511718 11.695313 6.40625 3.664062 12.835938 7.164062 19.257813 10.507812zm-58.328125-55.910156c-10.21875-7.441406-19.804688-15.058594-28.625-22.746094 8.820312-7.6875 18.40625-15.304688 28.625-22.746094-.308594 7.5-.46875 15.089844-.46875 22.746094s.160156 15.246094.46875 22.746094zm19.558594-79.203125c1.378906-12.421875 3.183594-24.164063 5.351562-35.117188 10.882813 3.664063 22.070313 7.984375 33.417969 12.917969-6.421875 3.339844-12.851563 6.84375-19.257813 10.503906-6.644531 3.800782-13.152343 7.707032-19.511718 11.695313zm78.175781-22.199219c11.347656-4.933594 22.535156-9.253906 33.417969-12.917969 2.167968 10.957031 3.972656 22.695313 5.351562 35.121094-6.359375-3.992187-12.867187-7.898437-19.511718-11.695313-6.40625-3.664062-12.835938-7.164062-19.257813-10.507812zm58.328125 55.910156c10.21875 7.441406 19.804688 15.058594 28.625 22.746094-8.820312 7.6875-18.40625 15.304688-28.625 22.746094.308594-7.5.46875-15.089844.46875-22.746094s-.160156-15.246094-.46875-22.746094zm-78.03125-163.25c18.027344 0 37.328125 29.347656 49.402344 77.75-16 5.304688-32.605469 11.972656-49.402344 19.84375-16.796875-7.871094-33.402344-14.535156-49.402344-19.84375 12.074219-48.402344 31.375-77.75 49.402344-77.75zm-137.492188 155.199219c-22.171874-26-31.136718-48.996094-23.980468-61.511719 4.964844-8.683594 18.214844-13.242187 37.113281-13.242187 8.332031 0 17.761719.886719 28.058594 2.695312 8.585937 1.507813 17.574219 3.597657 26.851562 6.21875-3.296875 16.34375-5.734375 33.867188-7.242187 52.140625-15.480469 10.625-29.796875 21.710938-42.582032 32.957032-6.667968-6.425782-12.769531-12.863282-18.21875-19.257813zm41.191407 133.652344c-33.65625 5.910156-58.019531 1.964843-65.171875-10.546875-7.15625-12.515625 1.808594-35.511719 23.980468-61.511719 5.449219-6.394531 11.550782-12.832031 18.21875-19.257813 12.78125 11.246094 27.101563 22.332032 42.578126 32.957032 1.507812 18.273437 3.945312 35.796875 7.246093 52.140625-9.277343 2.621093-18.265625 4.710937-26.851562 6.21875zm96.300781 83.140625c-18.027344 0-37.328125-29.347656-49.402344-77.75 16-5.304688 32.605469-11.972656 49.402344-19.84375 16.796875 7.871094 33.40625 14.535156 49.402344 19.84375-12.074219 48.402344-31.375 77.75-49.402344 77.75zm161.472656-93.6875c-7.152344 12.511718-31.511718 16.457031-65.171875 10.546875-8.585937-1.507813-17.574219-3.597657-26.851562-6.21875 3.300781-16.34375 5.738281-33.867188 7.246093-52.140625 15.476563-10.625 29.796876-21.710938 42.578126-32.957032 6.667968 6.425782 12.769531 12.863282 18.222656 19.257813 22.167968 26 31.132812 48.996094 23.976562 61.511719zm0 0" fill="#fff"/><path d="m387.78125 256c6.808594-6.589844 13.046875-13.199219 18.648438-19.769531 27.832031-32.640625 36.992187-61.402344 25.800781-80.96875-11.191407-19.582031-40.621094-26.28125-82.871094-18.863281-8.871094 1.5625-18.121094 3.703124-27.660156 6.371093-2.417969-9.609375-5.160157-18.710937-8.199219-27.179687-14.53125-40.359375-34.949219-62.589844-57.5-62.589844v17c18.03125 0 37.328125 29.351562 49.398438 77.761719-16 5.296875-32.597657 11.96875-49.398438 19.839843v18.839844c10.148438 4.957032 20.359375 10.359375 30.519531 16.167969 10.320313 5.902344 20.300781 12.050781 29.839844 18.378906.75 11.230469 1.140625 22.910157 1.140625 35.011719s-.390625 23.78125-1.140625 35.011719c-9.539063 6.328125-19.519531 12.476562-29.839844 18.378906-10.160156 5.808594-20.371093 11.210937-30.519531 16.167969v18.839844c16.800781 7.871093 33.398438 14.542968 49.398438 19.839843-12.070313 48.410157-31.367188 77.761719-49.398438 77.761719v17c22.550781 0 42.96875-22.230469 57.5-62.589844 3.039062-8.46875 5.78125-17.570312 8.199219-27.179687 9.539062 2.667969 18.789062 4.808593 27.660156 6.371093 11.242187 1.96875 21.5625 2.949219 30.878906 2.949219 25.730469 0 43.78125-7.429687 51.992188-21.8125 11.191406-19.566406 2.03125-48.328125-25.800781-80.96875-5.601563-6.570312-11.839844-13.179687-18.648438-19.769531zm-92.820312-68.148438c-6.410157-3.660156-12.832032-7.160156-19.261719-10.511718 11.351562-4.929688 22.539062-9.25 33.421875-12.910156 2.167968 10.949218 3.96875 22.691406 5.347656 35.109374-6.359375-3.988281-12.859375-7.890624-19.507812-11.6875zm14.160156 159.71875c-10.882813-3.660156-22.070313-7.980468-33.421875-12.910156 6.429687-3.351562 12.851562-6.851562 19.261719-10.511718 6.648437-3.796876 13.148437-7.699219 19.507812-11.6875-1.378906 12.417968-3.179688 24.160156-5.347656 35.109374zm43.179687-194.421874c10.300781-1.808594 19.730469-2.699219 28.058594-2.699219 18.890625 0 32.152344 4.5625 37.109375 13.242187 7.160156 12.519532-1.808594 35.507813-23.980469 61.507813-5.449219 6.402343-11.546875 12.839843-18.21875 19.261719-12.78125-11.25-27.097656-22.332032-42.578125-32.960938-1.5-18.269531-3.941406-35.789062-7.242187-52.140625 9.28125-2.621094 18.261719-4.710937 26.851562-6.210937zm-18.269531 80.113281c10.21875 7.4375 19.796875 15.046875 28.628906 22.738281-8.832031 7.691406-18.410156 15.300781-28.628906 22.738281.308594-7.5.46875-15.078125.46875-22.738281s-.160156-15.238281-.46875-22.738281zm83.4375 115.046875c-7.148438 12.511718-31.507812 16.453125-65.167969 10.542968-8.589843-1.5-17.570312-3.589843-26.851562-6.210937 3.300781-16.351563 5.742187-33.871094 7.242187-52.140625 15.480469-10.628906 29.796875-21.710938 42.578125-32.960938 6.671875 6.421876 12.769531 12.859376 18.21875 19.261719 22.171875 26 31.140625 48.988281 23.980469 61.507813zm0 0" fill="#fff5cb"/><path d="m293.328125 256c0 20.621094-16.707031 37.328125-37.328125 37.328125v-74.65625c20.621094 0 37.328125 16.707031 37.328125 37.328125zm0 0" fill="#e67500"/><path d="m168.980469 370.078125c0 14.320313-11.613281 25.933594-25.933594 25.933594s-25.933594-11.613281-25.933594-25.933594 11.613281-25.933594 25.933594-25.933594 25.933594 11.613281 25.933594 25.933594zm0 0" fill="#00e8f2"/><path d="m398.980469 141.921875c0 14.320313-11.613281 25.933594-25.933594 25.933594s-25.933594-11.613281-25.933594-25.933594 11.613281-25.933594 25.933594-25.933594 25.933594 11.613281 25.933594 25.933594zm0 0" fill="#fdc000"/></svg>